<svg width="19" height="19" viewBox="0 0 19 19" fill="none" xmlns="http://www.w3.org/2000/svg">
<mask id="mask0_772_2834" style="mask-type:alpha" maskUnits="userSpaceOnUse" x="0" y="0" width="19" height="19">
<rect width="18.231" height="18.231" fill="#D9D9D9"/>
</mask>
<g mask="url(#mask0_772_2834)">
<path d="M9.11605 14.4333C9.95164 14.4333 10.6669 14.1358 11.262 13.5407C11.857 12.9457 12.1545 12.2304 12.1545 11.3948V8.35629C12.1545 7.5207 11.857 6.80539 11.262 6.21035C10.6669 5.61531 9.95164 5.31779 9.11605 5.31779C8.28047 5.31779 7.56515 5.61531 6.97011 6.21035C6.37508 6.80539 6.07756 7.5207 6.07756 8.35629V11.3948C6.07756 12.2304 6.37508 12.9457 6.97011 13.5407C7.56515 14.1358 8.28047 14.4333 9.11605 14.4333ZM7.5968 12.1544H10.6353V10.6352H7.5968V12.1544ZM7.5968 9.11591H10.6353V7.59666H7.5968V9.11591ZM9.11605 15.9525C8.29313 15.9525 7.53034 15.75 6.82769 15.3448C6.12503 14.9397 5.57114 14.3826 5.16601 13.6737H3.03906V12.1544H4.63427C4.59629 11.9012 4.57414 11.648 4.56781 11.3948C4.56147 11.1416 4.55831 10.8884 4.55831 10.6352H3.03906V9.11591H4.55831C4.55831 8.8627 4.56147 8.60949 4.56781 8.35629C4.57414 8.10308 4.59629 7.84987 4.63427 7.59666H3.03906V6.07741H5.16601C5.34325 5.78623 5.54266 5.51403 5.76421 5.26082C5.98577 5.00761 6.24214 4.78605 6.53333 4.59615L5.31793 3.34277L6.38141 2.2793L8.0146 3.91249C8.36909 3.79854 8.72991 3.74157 9.09706 3.74157C9.46421 3.74157 9.82503 3.79854 10.1795 3.91249L11.8507 2.2793L12.9142 3.34277L11.6608 4.59615C11.952 4.78605 12.2147 5.00445 12.4489 5.25132C12.6831 5.4982 12.8888 5.77357 13.0661 6.07741H15.193V7.59666H13.5978C13.6358 7.84987 13.658 8.10308 13.6643 8.35629C13.6706 8.60949 13.6738 8.8627 13.6738 9.11591H15.193V10.6352H13.6738C13.6738 10.8884 13.6706 11.1416 13.6643 11.3948C13.658 11.648 13.6358 11.9012 13.5978 12.1544H15.193V13.6737H13.0661C12.661 14.3826 12.1071 14.9397 11.4044 15.3448C10.7018 15.75 9.93898 15.9525 9.11605 15.9525Z" fill="#F5F5F5"/>
</g>
</svg>
