<svg width="24" height="24" viewBox="0 0 24 24" fill="none" xmlns="http://www.w3.org/2000/svg">
<circle cx="12" cy="12" r="12" fill="#171616" fill-opacity="0.29"/>
<mask id="mask0_564_5" style="mask-type:alpha" maskUnits="userSpaceOnUse" x="3" y="3" width="18" height="18">
<rect x="3" y="3" width="17.6" height="17.6" fill="#D9D9D9"/>
</mask>
<g mask="url(#mask0_564_5)">
<path d="M9.13984 14.9163L12.8432 13.853C13.0876 13.7796 13.2985 13.6544 13.4757 13.4771C13.6529 13.2999 13.7782 13.0891 13.8515 12.8446L14.9148 9.14131C14.9515 9.00687 14.9179 8.8877 14.814 8.78381C14.7101 8.67992 14.591 8.64631 14.4565 8.68298L10.7532 9.74631C10.5087 9.81964 10.2979 9.94492 10.1207 10.1221C9.94346 10.2994 9.81818 10.5102 9.74485 10.7546L8.68151 14.458C8.64485 14.5924 8.67846 14.7116 8.78235 14.8155C8.88623 14.9194 9.0054 14.953 9.13984 14.9163ZM11.7982 12.8996C11.4926 12.8996 11.2329 12.7927 11.019 12.5788C10.8051 12.3649 10.6982 12.1052 10.6982 11.7996C10.6982 11.4941 10.8051 11.2344 11.019 11.0205C11.2329 10.8066 11.4926 10.6996 11.7982 10.6996C12.1037 10.6996 12.3635 10.8066 12.5773 11.0205C12.7912 11.2344 12.8982 11.4941 12.8982 11.7996C12.8982 12.1052 12.7912 12.3649 12.5773 12.5788C12.3635 12.7927 12.1037 12.8996 11.7982 12.8996ZM11.7982 19.133C10.7837 19.133 9.8304 18.9405 8.93818 18.5555C8.04596 18.1705 7.26984 17.648 6.60984 16.988C5.94984 16.328 5.42734 15.5519 5.04234 14.6596C4.65734 13.7674 4.46484 12.8141 4.46484 11.7996C4.46484 10.7852 4.65734 9.83187 5.04234 8.93964C5.42734 8.04742 5.94984 7.27131 6.60984 6.61131C7.26984 5.95131 8.04596 5.42881 8.93818 5.04381C9.8304 4.65881 10.7837 4.46631 11.7982 4.46631C12.8126 4.46631 13.766 4.65881 14.6582 5.04381C15.5504 5.42881 16.3265 5.95131 16.9865 6.61131C17.6465 7.27131 18.169 8.04742 18.554 8.93964C18.939 9.83187 19.1315 10.7852 19.1315 11.7996C19.1315 12.8141 18.939 13.7674 18.554 14.6596C18.169 15.5519 17.6465 16.328 16.9865 16.988C16.3265 17.648 15.5504 18.1705 14.6582 18.5555C13.766 18.9405 12.8126 19.133 11.7982 19.133ZM11.7982 17.6663C13.4237 17.6663 14.8079 17.0949 15.9507 15.9521C17.0935 14.8094 17.6648 13.4252 17.6648 11.7996C17.6648 10.1741 17.0935 8.78992 15.9507 7.64714C14.8079 6.50436 13.4237 5.93298 11.7982 5.93298C10.1726 5.93298 8.78846 6.50436 7.64568 7.64714C6.5029 8.78992 5.93151 10.1741 5.93151 11.7996C5.93151 13.4252 6.5029 14.8094 7.64568 15.9521C8.78846 17.0949 10.1726 17.6663 11.7982 17.6663Z" fill="#CFC4B2"/>
</g>
</svg>
