<svg width="24" height="24" viewBox="0 0 24 24" fill="none" xmlns="http://www.w3.org/2000/svg">
<circle cx="12" cy="12" r="12" fill="#171616" fill-opacity="0.29"/>
<mask id="mask0_640_17" style="mask-type:alpha" maskUnits="userSpaceOnUse" x="4" y="4" width="16" height="16">
<rect x="4" y="4" width="16" height="16" fill="#D9D9D9"/>
</mask>
<g mask="url(#mask0_640_17)">
<path d="M14 18L10 16.6L6.9 17.8C6.67778 17.8889 6.47222 17.8639 6.28333 17.725C6.09444 17.5861 6 17.4 6 17.1667V7.83333C6 7.68889 6.04167 7.56111 6.125 7.45C6.20833 7.33889 6.32222 7.25556 6.46667 7.2L10 6L14 7.4L17.1 6.2C17.3222 6.11111 17.5278 6.13611 17.7167 6.275C17.9056 6.41389 18 6.6 18 6.83333V16.1667C18 16.3111 17.9583 16.4389 17.875 16.55C17.7917 16.6611 17.6778 16.7444 17.5333 16.8L14 18ZM13.3333 16.3667V8.56667L10.6667 7.63333V15.4333L13.3333 16.3667ZM14.6667 16.3667L16.6667 15.7V7.8L14.6667 8.56667V16.3667ZM7.33333 16.2L9.33333 15.4333V7.63333L7.33333 8.3V16.2Z" fill="#CFC4B2"/>
</g>
</svg>
