<svg width="34" height="34" viewBox="0 0 34 34" fill="none" xmlns="http://www.w3.org/2000/svg">
<mask id="mask0_767_2159" style="mask-type:alpha" maskUnits="userSpaceOnUse" x="0" y="0" width="34" height="34">
<rect width="34" height="34" fill="#F5F5F5"/>
</mask>
<g mask="url(#mask0_767_2159)">
<path d="M9.20703 4.24935C8.14453 4.24935 7.28863 4.83963 6.63932 6.02018C5.99002 7.20074 5.66536 8.49935 5.66536 9.91602C5.66536 11.4035 5.87196 12.7198 6.28516 13.865C6.69835 15.0101 7.08203 15.866 7.4362 16.4327L11.332 15.6535C11.639 14.898 11.9518 14.0362 12.2706 13.0681C12.5893 12.1 12.7487 11.0493 12.7487 9.91602C12.7487 8.49935 12.424 7.20074 11.7747 6.02018C11.1254 4.83963 10.2695 4.24935 9.20703 4.24935ZM11.1549 22.666C11.6036 22.666 11.9813 22.5007 12.2883 22.1702C12.5952 21.8396 12.7487 21.3792 12.7487 20.7889C12.7487 20.3875 12.6543 19.9743 12.4654 19.5493C12.2765 19.1243 12.0876 18.7466 11.8987 18.416L8.4987 19.1243C8.4987 20.0688 8.7053 20.8952 9.11849 21.6035C9.53168 22.3118 10.2105 22.666 11.1549 22.666ZM24.7904 11.3327C23.7279 11.3327 22.872 11.923 22.2227 13.1035C21.5734 14.2841 21.2487 15.5827 21.2487 16.9993C21.2487 18.1327 21.4081 19.1775 21.7268 20.1337C22.0456 21.09 22.3584 21.9577 22.6654 22.7368L26.5612 23.516C26.9154 22.9493 27.299 22.0993 27.7122 20.966C28.1254 19.8327 28.332 18.5105 28.332 16.9993C28.332 15.5827 28.0074 14.2841 27.3581 13.1035C26.7088 11.923 25.8529 11.3327 24.7904 11.3327ZM22.8424 29.7493C23.7869 29.7493 24.4657 29.3952 24.8789 28.6868C25.2921 27.9785 25.4987 27.1521 25.4987 26.2077L22.0987 25.4993C21.9098 25.8299 21.7209 26.2077 21.532 26.6327C21.3431 27.0577 21.2487 27.4709 21.2487 27.8723C21.2487 28.3445 21.3963 28.7754 21.6914 29.165C21.9865 29.5546 22.3702 29.7493 22.8424 29.7493ZM11.1549 25.4993C9.33689 25.4993 7.95564 24.8264 7.0112 23.4806C6.06675 22.1348 5.61814 20.6237 5.66536 18.9473L5.02786 17.991C4.76814 17.5896 4.33724 16.6806 3.73516 15.2639C3.13307 13.8473 2.83203 12.0646 2.83203 9.91602C2.83203 7.48407 3.43411 5.45942 4.63828 3.84206C5.84245 2.2247 7.36536 1.41602 9.20703 1.41602C11.214 1.41602 12.7782 2.30734 13.8997 4.08997C15.0213 5.87261 15.582 7.81463 15.582 9.91602C15.582 11.2855 15.3931 12.5487 15.0154 13.7056C14.6376 14.8625 14.307 15.7952 14.0237 16.5035L14.307 16.9639C14.4959 17.2945 14.7556 17.8198 15.0862 18.54C15.4168 19.2601 15.582 20.0098 15.582 20.7889C15.582 22.1348 15.1629 23.2563 14.3247 24.1535C13.4865 25.0507 12.4299 25.4993 11.1549 25.4993ZM22.8424 32.5827C21.5674 32.5827 20.5109 32.1341 19.6727 31.2368C18.8345 30.3396 18.4154 29.2181 18.4154 27.8723C18.4154 27.0931 18.5806 26.3434 18.9112 25.6233C19.2418 24.9032 19.5015 24.3778 19.6904 24.0473L19.9737 23.5868C19.6904 22.8785 19.3598 21.9459 18.982 20.7889C18.6043 19.632 18.4154 18.3688 18.4154 16.9993C18.4154 14.898 18.9761 12.9559 20.0977 11.1733C21.2192 9.39067 22.7834 8.49935 24.7904 8.49935C26.632 8.49935 28.1549 9.30803 29.3591 10.9254C30.5633 12.5428 31.1654 14.5674 31.1654 16.9993C31.1654 19.148 30.8643 20.9247 30.2622 22.3296C29.6602 23.7344 29.2293 24.6375 28.9695 25.0389L28.332 26.0306C28.3556 27.707 27.9011 29.2181 26.9685 30.5639C26.0359 31.9098 24.6605 32.5827 22.8424 32.5827Z" fill="#F5F5F5"/>
</g>
</svg>
