<svg width="19" height="19" viewBox="0 0 19 19" fill="none" xmlns="http://www.w3.org/2000/svg">
<path d="M18.3237 9.55803C18.3237 8.78926 18.2613 8.22825 18.1263 7.64648H9.34766V11.1163H14.5005C14.3967 11.9786 13.8357 13.2773 12.589 14.1499L12.5715 14.266L15.3471 16.4163L15.5394 16.4355C17.3055 14.8044 18.3237 12.4046 18.3237 9.55803Z" fill="#4285F4"/>
<path d="M9.34879 18.7C11.8733 18.7 13.9926 17.8688 15.5406 16.4352L12.5901 14.1496C11.8006 14.7002 10.7409 15.0846 9.34879 15.0846C6.87625 15.0846 4.77771 13.4536 4.02964 11.1992L3.91999 11.2085L1.03384 13.4421L0.996094 13.5471C2.53363 16.6014 5.69187 18.7 9.34879 18.7Z" fill="#34A853"/>
<path d="M4.03085 11.1993C3.83347 10.6175 3.71923 9.99413 3.71923 9.35006C3.71923 8.7059 3.83347 8.08259 4.02047 7.50082L4.01524 7.37692L1.09292 5.10742L0.99731 5.1529C0.363615 6.42036 0 7.84367 0 9.35006C0 10.8564 0.363615 12.2797 0.99731 13.5471L4.03085 11.1993Z" fill="#FBBC05"/>
<path d="M9.34879 3.61531C11.1045 3.61531 12.2888 4.3737 12.9641 5.00746L15.6029 2.431C13.9823 0.924616 11.8733 0 9.34879 0C5.69187 0 2.53363 2.09854 0.996094 5.15285L4.01925 7.50077C4.77771 5.24639 6.87625 3.61531 9.34879 3.61531Z" fill="#EB4335"/>
</svg>
