<svg width="57" height="63" viewBox="0 0 57 63" fill="none" xmlns="http://www.w3.org/2000/svg">
<path d="M34.7051 50.9723C36.2406 54.8585 37.6605 58.4554 37.366 62.6782C33.0907 51.7611 23.9143 42.8424 11.6562 41.6539C12.5134 39.8344 13.3443 38.3252 14.2015 36.8212L16.2261 36.6108L16.7887 34.4705C19.4233 34.3023 21.4479 33.0665 22.1158 30.374L24.5137 31.3048C25.2132 36.9789 28.0213 38.9036 33.5797 40.2972L31.8654 44.1308L35.2678 47.5331L34.6946 50.9618L34.7051 50.9723Z" fill="#F5F5F5"/>
<path d="M19.5203 47.0126C12.2002 44.9407 7.93016 48.7322 4.75391 54.8112C4.7802 51.0039 9.16595 45.5454 11.8268 43.2158C17.2012 43.6418 24.3162 46.3395 26.4881 51.6297C24.1427 49.7629 22.3653 47.8224 19.5203 47.0179V47.0126Z" fill="#F5F5F5"/>
<path d="M38.8136 40.1695C36.7522 40.0591 34.9064 39.6594 33.0606 39.1125C28.0385 37.6296 25.7089 36.1256 25.6721 30.341C23.6265 30.3305 22.0279 29.242 21.1444 27.4382C20.4345 25.9816 19.8613 24.3461 20.7815 22.8106C21.2548 22.027 22.3644 21.6379 23.2742 21.7641C26.4189 22.2058 24.9885 26.9176 29.7213 25.5083C30.5101 23.3522 29.674 22.169 31.5408 20.1812C32.3139 19.3609 32.5926 18.5984 32.6241 17.2837L40.8119 16.1794C41.6585 16.0637 42.3106 16.9314 42.3422 17.7517L42.4999 21.722L45.6026 26.8124C45.7761 27.0912 45.8865 27.8957 45.713 28.1534C45.5395 28.4111 45.0609 28.7214 44.677 28.9054L42.8575 29.7783C42.8155 30.5566 42.7681 31.4979 42.5105 31.9186L39.96 32.4445C40.9328 32.6864 42.0161 32.8389 42.4053 33.3595C42.0319 34.5795 41.7164 35.6418 41.8847 36.7882C42.1634 38.655 40.9066 40.2905 38.8083 40.18L38.8136 40.1695Z" fill="#F5F5F5"/>
<path d="M12.2743 25.904C12.6161 26.8558 13.0474 27.6972 13.5417 28.7857C11.2068 29.1801 0.110983 30.2424 0.000550211 27.1818C-0.0730715 25.1099 7.2628 21.6917 9.24007 20.8924C18.5795 17.1114 28.2029 14.4768 38.2049 13.1253C42.0333 12.6047 52.8136 11.8843 55.6428 14.0614C58.4719 16.2385 44.8835 20.6085 43.4321 20.8556C43.6109 18.7416 43.2638 16.9747 42.3909 15.1815C32.7306 15.965 23.4438 18.0475 14.5671 21.6023C12.7476 22.328 11.5329 23.8163 12.2849 25.9092L12.2743 25.904Z" fill="#F5F5F5"/>
<path d="M38.9351 7.62973C28.7859 8.81294 21.0766 11.0847 11.7109 14.8447C11.3217 12.7832 11.3007 10.6272 11.6478 8.47112C11.8371 7.28792 12.8836 6.07316 13.9458 5.41056C19.0993 2.18173 24.9628 0.356961 31.0366 0.00988743C32.8298 -0.0900277 34.1865 0.567309 35.1909 1.9819C36.4688 3.78563 37.6993 5.63669 38.9351 7.62973ZM19.7619 6.51489C21.0819 8.16612 23.138 8.2187 25.0311 8.0662C27.6289 7.86111 29.7219 6.69894 31.0523 4.45874L27.6763 5.86807C25.2099 6.89877 22.4912 6.6411 19.7619 6.51489Z" fill="#F5F5F5"/>
<path d="M20.8671 29.236C21.6506 31.5288 19.0844 33.6586 16.8389 33.4167L15.9502 31.3185L13.2946 25.8705C12.6057 24.4612 13.4103 23.0203 14.7512 22.4734C20.1414 20.2752 25.5894 18.7187 31.3161 17.5723C32.0102 19.8177 29.0075 19.3602 29.0601 24.682C25.9996 25.7653 27.0513 20.8747 23.0284 20.6854C21.4666 20.6118 20.073 21.5426 19.5682 23.0676C18.8162 25.3341 20.1361 27.1063 20.8671 29.2413V29.236Z" fill="#F5F5F5"/>
<path d="M40.89 11.3362C30.8932 12.2197 21.7063 14.5651 12.3353 18.1252C11.6622 17.7466 11.6043 16.5003 11.9672 15.7798C20.481 12.3301 30.2148 9.34845 39.4806 8.58594C40.0275 9.53776 40.3325 10.0689 40.89 11.3362Z" fill="#F5F5F5"/>
</svg>
