<svg width="34" height="34" viewBox="0 0 34 34" fill="none" xmlns="http://www.w3.org/2000/svg">
<mask id="mask0_767_2150" style="mask-type:alpha" maskUnits="userSpaceOnUse" x="0" y="0" width="34" height="34">
<rect width="34" height="34" fill="#F5F5F5"/>
</mask>
<g mask="url(#mask0_767_2150)">
<path d="M9.20964 22.666C10.3194 22.666 11.3996 22.79 12.4503 23.0379C13.501 23.2858 14.5457 23.6577 15.5846 24.1535V10.1993C14.6166 9.63268 13.5895 9.20768 12.5034 8.92435C11.4173 8.64102 10.3194 8.49935 9.20964 8.49935C8.35964 8.49935 7.51554 8.58199 6.67734 8.74727C5.83915 8.91254 5.03047 9.16046 4.2513 9.49102V23.516C5.07769 23.2327 5.89818 23.0202 6.71276 22.8785C7.52734 22.7368 8.35964 22.666 9.20964 22.666ZM18.418 24.1535C19.4569 23.6577 20.5016 23.2858 21.5523 23.0379C22.603 22.79 23.6832 22.666 24.793 22.666C25.643 22.666 26.4753 22.7368 27.2898 22.8785C28.1044 23.0202 28.9249 23.2327 29.7513 23.516V9.49102C28.9721 9.16046 28.1635 8.91254 27.3253 8.74727C26.4871 8.58199 25.643 8.49935 24.793 8.49935C23.6832 8.49935 22.5853 8.64102 21.4992 8.92435C20.4131 9.20768 19.386 9.63268 18.418 10.1993V24.1535ZM17.0013 28.3327C15.868 27.4355 14.6402 26.7389 13.318 26.2431C11.9957 25.7473 10.6263 25.4993 9.20964 25.4993C8.21797 25.4993 7.24401 25.6292 6.28776 25.8889C5.33151 26.1487 4.41658 26.5146 3.54297 26.9868C3.04714 27.2466 2.56901 27.2348 2.10859 26.9514C1.64818 26.6681 1.41797 26.2549 1.41797 25.7118V8.64102C1.41797 8.38129 1.4829 8.13338 1.61276 7.89727C1.74262 7.66115 1.93741 7.48407 2.19714 7.36602C3.28325 6.79935 4.41658 6.37435 5.59714 6.09102C6.77769 5.80768 7.98186 5.66602 9.20964 5.66602C10.5791 5.66602 11.919 5.8431 13.2294 6.19727C14.5398 6.55143 15.7971 7.08268 17.0013 7.79102C18.2055 7.08268 19.4628 6.55143 20.7732 6.19727C22.0836 5.8431 23.4235 5.66602 24.793 5.66602C26.0207 5.66602 27.2249 5.80768 28.4055 6.09102C29.586 6.37435 30.7194 6.79935 31.8055 7.36602C32.0652 7.48407 32.26 7.66115 32.3898 7.89727C32.5197 8.13338 32.5846 8.38129 32.5846 8.64102V25.7118C32.5846 26.2549 32.3544 26.6681 31.894 26.9514C31.4336 27.2348 30.9555 27.2466 30.4596 26.9868C29.586 26.5146 28.6711 26.1487 27.7148 25.8889C26.7586 25.6292 25.7846 25.4993 24.793 25.4993C23.3763 25.4993 22.0069 25.7473 20.6846 26.2431C19.3624 26.7389 18.1346 27.4355 17.0013 28.3327Z" fill="#F5F5F5"/>
</g>
</svg>
