<svg width="24" height="24" viewBox="0 0 24 24" fill="none" xmlns="http://www.w3.org/2000/svg">
<mask id="mask0_625_42" style="mask-type:alpha" maskUnits="userSpaceOnUse" x="0" y="0" width="24" height="24">
<rect width="24" height="24" fill="#D9D9D9"/>
</mask>
<g mask="url(#mask0_625_42)">
<path d="M12 22C11.8167 22 11.65 21.9542 11.5 21.8625C11.35 21.7708 11.2333 21.65 11.15 21.5L10.975 21.15C10.7917 20.8 10.5917 20.4625 10.375 20.1375C10.1583 19.8125 9.91667 19.5 9.65 19.2C8.95 18.3667 8.2 17.5958 7.4 16.8875C6.6 16.1792 5.90833 15.3667 5.325 14.45C4.85833 13.8167 4.52083 13.1208 4.3125 12.3625C4.10417 11.6042 4 10.825 4 10.025C4 7.80833 4.77083 5.91667 6.3125 4.35C7.85417 2.78333 9.74167 2 11.975 2C14.2417 2 16.1458 2.8 17.6875 4.4C19.2292 6 20 7.93333 20 10.2L22.1 8.1L23.5 9.5L19 14L14.5 9.5L15.875 8.1L18 10.2C18 8.5 17.4208 7.05 16.2625 5.85C15.1042 4.65 13.675 4.03333 11.975 4C10.3083 4 8.9 4.5875 7.75 5.7625C6.6 6.9375 6.01667 8.35833 6 10.025C6 10.625 6.07917 11.2042 6.2375 11.7625C6.39583 12.3208 6.64167 12.8417 6.975 13.325C7.44167 14.025 7.975 14.6667 8.575 15.25C9.175 15.8333 9.76667 16.425 10.35 17.025C10.65 17.3417 10.9292 17.6583 11.1875 17.975C11.4458 18.2917 11.7083 18.6167 11.975 18.95C12.1083 18.75 12.2458 18.5542 12.3875 18.3625C12.5292 18.1708 12.6833 17.9833 12.85 17.8C12.7333 17.6167 12.6417 17.4125 12.575 17.1875C12.5083 16.9625 12.475 16.7333 12.475 16.5C12.475 15.8 12.7167 15.2083 13.2 14.725C13.6833 14.2417 14.275 14 14.975 14C15.675 14 16.2667 14.2417 16.75 14.725C17.2333 15.2083 17.475 15.8 17.475 16.5C17.475 17.2 17.2333 17.7917 16.75 18.275C16.2667 18.7583 15.675 19 14.975 19H14.7625C14.7042 19 14.6333 18.9917 14.55 18.975C14.25 19.3083 13.9667 19.6542 13.7 20.0125C13.4333 20.3708 13.2 20.75 13 21.15L12.825 21.5C12.7417 21.6667 12.625 21.7917 12.475 21.875C12.325 21.9583 12.1667 22 12 22Z" fill="#CFC4B2"/>
</g>
</svg>
