<svg width="34" height="34" viewBox="0 0 34 34" fill="none" xmlns="http://www.w3.org/2000/svg">
<mask id="mask0_767_2141" style="mask-type:alpha" maskUnits="userSpaceOnUse" x="0" y="0" width="34" height="34">
<rect width="34" height="34" fill="#F5F5F5"/>
</mask>
<g mask="url(#mask0_767_2141)">
<path d="M17.0013 28.3327C15.6791 28.3327 14.4336 28.1261 13.2648 27.7129C12.0961 27.2997 11.0277 26.7153 10.0596 25.9598L8.0763 27.9077C7.81658 28.1674 7.48602 28.2973 7.08464 28.2973C6.68325 28.2973 6.35269 28.1674 6.09297 27.9077C5.83325 27.648 5.70339 27.3174 5.70339 26.916C5.70339 26.5146 5.83325 26.1841 6.09297 25.9243L8.04089 23.9764C7.28533 23.0084 6.70095 21.9341 6.28776 20.7535C5.87457 19.573 5.66797 18.3216 5.66797 16.9993C5.66797 13.8355 6.76589 11.1556 8.96172 8.95977C11.1576 6.76393 13.8374 5.66602 17.0013 5.66602H28.3346V16.9993C28.3346 20.1632 27.2367 22.8431 25.0409 25.0389C22.8451 27.2348 20.1652 28.3327 17.0013 28.3327ZM17.0013 25.4993C19.3624 25.4993 21.3694 24.673 23.0221 23.0202C24.6749 21.3674 25.5013 19.3605 25.5013 16.9993V8.49935H17.0013C14.6402 8.49935 12.6332 9.32574 10.9805 10.9785C9.32769 12.6313 8.5013 14.6382 8.5013 16.9993C8.5013 17.9202 8.64297 18.7997 8.9263 19.6379C9.20964 20.4761 9.59922 21.2375 10.0951 21.9223L17.4263 14.591C17.686 14.3313 18.0166 14.2014 18.418 14.2014C18.8194 14.2014 19.1499 14.3313 19.4096 14.591C19.693 14.8743 19.8346 15.2108 19.8346 15.6004C19.8346 15.99 19.693 16.3264 19.4096 16.6098L12.0784 23.941C12.7631 24.4368 13.5246 24.8205 14.3628 25.0921C15.201 25.3636 16.0805 25.4993 17.0013 25.4993Z" fill="#F5F5F5"/>
</g>
</svg>
