<svg width="24" height="24" viewBox="0 0 24 24" fill="none" xmlns="http://www.w3.org/2000/svg">
<circle cx="12" cy="12" r="12" fill="#171616" fill-opacity="0.29"/>
<mask id="mask0_564_2" style="mask-type:alpha" maskUnits="userSpaceOnUse" x="3" y="3" width="18" height="18">
<rect x="3" y="3" width="18" height="18" fill="#D9D9D9"/>
</mask>
<g mask="url(#mask0_564_2)">
<path d="M11.2516 20.2497V18.7497C9.68906 18.5747 8.34844 17.9278 7.22969 16.8091C6.11094 15.6903 5.46406 14.3497 5.28906 12.7872H3.78906V11.2872H5.28906C5.46406 9.72471 6.11094 8.38408 7.22969 7.26533C8.34844 6.14658 9.68906 5.49971 11.2516 5.32471V3.82471H12.7516V5.32471C14.3141 5.49971 15.6547 6.14658 16.7734 7.26533C17.8922 8.38408 18.5391 9.72471 18.7141 11.2872H20.2141V12.7872H18.7141C18.5391 14.3497 17.8922 15.6903 16.7734 16.8091C15.6547 17.9278 14.3141 18.5747 12.7516 18.7497V20.2497H11.2516ZM15.7141 15.7497C16.7391 14.7247 17.2516 13.4872 17.2516 12.0372C17.2516 10.5872 16.7391 9.34971 15.7141 8.32471C14.6891 7.29971 13.4516 6.78721 12.0016 6.78721C10.5516 6.78721 9.31406 7.29971 8.28906 8.32471C7.26406 9.34971 6.75156 10.5872 6.75156 12.0372C6.75156 13.4872 7.26406 14.7247 8.28906 15.7497C9.31406 16.7747 10.5516 17.2872 12.0016 17.2872C13.4516 17.2872 14.6891 16.7747 15.7141 15.7497Z" fill="#CFC4B2"/>
</g>
</svg>
