<svg width="24" height="24" viewBox="0 0 24 24" fill="none" xmlns="http://www.w3.org/2000/svg">
<circle cx="12" cy="12" r="12" fill="#171616" fill-opacity="0.29"/>
<mask id="mask0_640_10" style="mask-type:alpha" maskUnits="userSpaceOnUse" x="4" y="4" width="16" height="16">
<rect x="4" y="4" width="16" height="16" fill="#D9D9D9"/>
</mask>
<g mask="url(#mask0_640_10)">
<path d="M10.6667 19.3332V17.9998H7.33333C6.96667 17.9998 6.65278 17.8693 6.39167 17.6082C6.13056 17.3471 6 17.0332 6 16.6665V7.33317C6 6.9665 6.13056 6.65262 6.39167 6.3915C6.65278 6.13039 6.96667 5.99984 7.33333 5.99984H10.6667V4.6665H12V19.3332H10.6667ZM7.33333 15.9998H10.6667V11.9998L7.33333 15.9998ZM13.3333 17.9998V11.9998L16.6667 15.9998V7.33317H13.3333V5.99984H16.6667C17.0333 5.99984 17.3472 6.13039 17.6083 6.3915C17.8694 6.65262 18 6.9665 18 7.33317V16.6665C18 17.0332 17.8694 17.3471 17.6083 17.6082C17.3472 17.8693 17.0333 17.9998 16.6667 17.9998H13.3333Z" fill="#CFC4B2"/>
</g>
</svg>
