<svg width="24" height="24" viewBox="0 0 24 24" fill="none" xmlns="http://www.w3.org/2000/svg">
<circle cx="12" cy="12" r="12" fill="#171616" fill-opacity="0.29"/>
<path d="M5 17.9667V16.6333C5.51111 16.6333 6.01667 16.6 6.51667 16.5333C7.01667 16.4667 7.50556 16.3444 7.98333 16.1667C7.47222 15.9111 7.06944 15.5417 6.775 15.0583C6.48056 14.575 6.33333 14.05 6.33333 13.4833V11.9667H9V9.96667H11.25L9.06667 5.6L10.2667 5L12.45 9.36667C12.6722 9.81111 12.6556 10.2444 12.4 10.6667C12.1444 11.0889 11.7667 11.3 11.2667 11.3H10.3333V11.9667C10.3333 12.3333 10.2028 12.6472 9.94167 12.9083C9.68056 13.1694 9.36667 13.3 9 13.3H7.66667V13.4833C7.66667 13.8722 7.78611 14.2139 8.025 14.5083C8.26389 14.8028 8.56667 15 8.93333 15.1L9.13333 15.15C9.57778 15.2611 9.82778 15.5389 9.88333 15.9833C9.93889 16.4278 9.76667 16.7611 9.36667 16.9833C8.7 17.35 7.99722 17.6056 7.25833 17.75C6.51944 17.8944 5.76667 17.9667 5 17.9667ZM14.5333 16.0667L13.5833 15.1333C13.8167 14.9 14 14.6306 14.1333 14.325C14.2667 14.0194 14.3333 13.6889 14.3333 13.3333C14.3333 12.9778 14.2667 12.6472 14.1333 12.3417C14 12.0361 13.8167 11.7667 13.5833 11.5333L14.5333 10.5833C14.8889 10.9389 15.1667 11.3528 15.3667 11.825C15.5667 12.2972 15.6667 12.8 15.6667 13.3333C15.6667 13.8667 15.5667 14.3667 15.3667 14.8333C15.1667 15.3 14.8889 15.7111 14.5333 16.0667ZM16.4167 17.9667L15.4667 17.0167C15.9444 16.5389 16.3194 15.9861 16.5917 15.3583C16.8639 14.7306 17 14.0556 17 13.3333C17 12.6 16.8639 11.9222 16.5917 11.3C16.3194 10.6778 15.9444 10.1278 15.4667 9.65L16.4167 8.7C17.0167 9.3 17.4861 9.99444 17.825 10.7833C18.1639 11.5722 18.3333 12.4222 18.3333 13.3333C18.3333 14.2333 18.1639 15.0806 17.825 15.875C17.4861 16.6694 17.0167 17.3667 16.4167 17.9667Z" fill="#CFC4B2"/>
</svg>
