<svg width="24" height="24" viewBox="0 0 24 24" fill="none" xmlns="http://www.w3.org/2000/svg">
<circle cx="12" cy="12" r="12" fill="#171616" fill-opacity="0.29"/>
<mask id="mask0_640_30" style="mask-type:alpha" maskUnits="userSpaceOnUse" x="1" y="1" width="22" height="22">
<rect x="7.13281" y="1.78662" width="16" height="16" transform="rotate(19.5208 7.13281 1.78662)" fill="#D9D9D9"/>
</mask>
<g mask="url(#mask0_640_30)">
<path d="M7.26083 10.4075C6.82099 10.2515 6.50305 9.96789 6.30702 9.55652C6.11099 9.14515 6.09094 8.71954 6.24688 8.2797C6.40281 7.83986 6.68647 7.52192 7.09784 7.32589C7.50921 7.12986 8.31353 6.24422 8.75337 6.40015C9.19321 6.55609 9.13244 7.70533 9.32847 8.1167C9.5245 8.52808 9.54455 8.95368 9.38861 9.39353C9.23268 9.83337 8.94902 10.1513 8.53765 10.3473C8.12628 10.5434 7.70067 10.5634 7.26083 10.4075ZM10.0256 8.04558C9.82961 7.63421 9.80957 7.2086 9.9655 6.76876C10.1214 6.32891 10.4051 6.01097 10.8165 5.81494C11.2278 5.61891 12.0797 4.39659 12.5195 4.55252C12.9594 4.70846 12.8511 6.19439 13.0471 6.60576C13.2431 7.01713 13.2632 7.44274 13.1072 7.88258C12.9513 8.32243 12.6676 8.64036 12.2563 8.83639C11.8449 9.03242 11.4193 9.05247 10.9795 8.89654C10.5396 8.7406 10.2217 8.45695 10.0256 8.04558ZM13.7957 9.38217C13.5997 8.9708 13.5796 8.54519 13.7356 8.10535C13.8915 7.66551 14.1752 7.34757 14.5865 7.15154C14.9979 6.95551 15.7555 5.69977 16.1954 5.8557C16.6352 6.01164 16.6211 7.53098 16.8172 7.94235C17.0132 8.35373 17.0333 8.77933 16.8773 9.21918C16.7214 9.65902 16.4377 9.97696 16.0264 10.173C15.615 10.369 15.1894 10.3891 14.7495 10.2331C14.3097 10.0772 13.9918 9.79354 13.7957 9.38217ZM16.686 13.749C16.2462 13.593 15.9283 13.3094 15.7322 12.898C15.5362 12.4866 15.5161 12.061 15.6721 11.6212C15.828 11.1813 16.1117 10.8634 16.523 10.6674C16.9344 10.4713 17.6749 9.56308 18.1148 9.71901C18.5546 9.87495 18.5576 11.0468 18.7537 11.4582C18.9497 11.8696 18.9698 12.2952 18.8138 12.735C18.6579 13.1749 18.3742 13.4928 17.9629 13.6888C17.5515 13.8849 17.1259 13.9049 16.686 13.749ZM6.38412 17.1699C5.91286 17.0028 5.58157 16.682 5.39025 16.2075C5.19893 15.7329 5.19052 15.2496 5.36502 14.7574C5.55809 14.2128 5.9129 13.8022 6.42947 13.5256C6.94604 13.249 7.45814 12.9766 7.96576 12.7086C8.38455 12.4917 8.77167 12.231 9.12711 11.9268C9.48255 11.6225 9.87152 11.3566 10.294 11.1292C10.621 10.9386 10.9678 10.8081 11.3346 10.7377C11.7015 10.6674 12.0629 10.6953 12.419 10.8215C12.775 10.9478 13.0752 11.1485 13.3195 11.4237C13.5638 11.699 13.7529 12.0135 13.8867 12.3675C14.0612 12.8066 14.1923 13.2598 14.2801 13.7271C14.3678 14.1944 14.5042 14.6494 14.6891 15.0922C14.9145 15.6201 15.1407 16.1542 15.3677 16.6944C15.5947 17.2346 15.6116 17.777 15.4186 18.3216C15.2441 18.8138 14.9331 19.1839 14.4856 19.432C14.0381 19.6801 13.5787 19.7206 13.1074 19.5535C12.5419 19.353 11.9984 19.1072 11.4767 18.8162C10.9551 18.5252 10.4115 18.2794 9.84602 18.0789C9.28051 17.8784 8.70353 17.7269 8.11507 17.6244C7.52662 17.5219 6.94964 17.3704 6.38412 17.1699Z" fill="#CFC4B2"/>
</g>
</svg>
