<svg width="24" height="24" viewBox="0 0 24 24" fill="none" xmlns="http://www.w3.org/2000/svg">
<circle cx="12" cy="12" r="12" fill="#171616" fill-opacity="0.29"/>
<mask id="mask0_564_4" style="mask-type:alpha" maskUnits="userSpaceOnUse" x="5" y="5" width="15" height="15">
<rect x="5" y="5" width="15" height="15" fill="#D9D9D9"/>
</mask>
<g mask="url(#mask0_564_4)">
<path d="M9.0625 6.875C8.59375 6.875 8.21615 7.13542 7.92969 7.65625C7.64323 8.17708 7.5 8.75 7.5 9.375C7.5 10.0312 7.59115 10.612 7.77344 11.1172C7.95573 11.6224 8.125 12 8.28125 12.25L10 11.9062C10.1354 11.5729 10.2734 11.1927 10.4141 10.7656C10.5547 10.3385 10.625 9.875 10.625 9.375C10.625 8.75 10.4818 8.17708 10.1953 7.65625C9.90885 7.13542 9.53125 6.875 9.0625 6.875ZM9.92188 15C10.1198 15 10.2865 14.9271 10.4219 14.7812C10.5573 14.6354 10.625 14.4323 10.625 14.1719C10.625 13.9948 10.5833 13.8125 10.5 13.625C10.4167 13.4375 10.3333 13.2708 10.25 13.125L8.75 13.4375C8.75 13.8542 8.84115 14.2188 9.02344 14.5312C9.20573 14.8438 9.50521 15 9.92188 15ZM15.9375 10C15.4688 10 15.0911 10.2604 14.8047 10.7812C14.5182 11.3021 14.375 11.875 14.375 12.5C14.375 13 14.4453 13.4609 14.5859 13.8828C14.7266 14.3047 14.8646 14.6875 15 15.0312L16.7188 15.375C16.875 15.125 17.0443 14.75 17.2266 14.25C17.4089 13.75 17.5 13.1667 17.5 12.5C17.5 11.875 17.3568 11.3021 17.0703 10.7812C16.7839 10.2604 16.4062 10 15.9375 10ZM15.0781 18.125C15.4948 18.125 15.7943 17.9688 15.9766 17.6562C16.1589 17.3438 16.25 16.9792 16.25 16.5625L14.75 16.25C14.6667 16.3958 14.5833 16.5625 14.5 16.75C14.4167 16.9375 14.375 17.1198 14.375 17.2969C14.375 17.5052 14.4401 17.6953 14.5703 17.8672C14.7005 18.0391 14.8698 18.125 15.0781 18.125ZM9.92188 16.25C9.11979 16.25 8.51042 15.9531 8.09375 15.3594C7.67708 14.7656 7.47917 14.099 7.5 13.3594L7.21875 12.9375C7.10417 12.7604 6.91406 12.3594 6.64844 11.7344C6.38281 11.1094 6.25 10.3229 6.25 9.375C6.25 8.30208 6.51562 7.40885 7.04688 6.69531C7.57812 5.98177 8.25 5.625 9.0625 5.625C9.94792 5.625 10.638 6.01823 11.1328 6.80469C11.6276 7.59115 11.875 8.44792 11.875 9.375C11.875 9.97917 11.7917 10.5365 11.625 11.0469C11.4583 11.5573 11.3125 11.9688 11.1875 12.2813L11.3125 12.4844C11.3958 12.6302 11.5104 12.862 11.6563 13.1797C11.8021 13.4974 11.875 13.8281 11.875 14.1719C11.875 14.7656 11.6901 15.2604 11.3203 15.6563C10.9505 16.0521 10.4844 16.25 9.92188 16.25ZM15.0781 19.375C14.5156 19.375 14.0495 19.1771 13.6797 18.7813C13.3099 18.3854 13.125 17.8906 13.125 17.2969C13.125 16.9531 13.1979 16.6224 13.3438 16.3047C13.4896 15.987 13.6042 15.7552 13.6875 15.6094L13.8125 15.4062C13.6875 15.0938 13.5417 14.6823 13.375 14.1719C13.2083 13.6615 13.125 13.1042 13.125 12.5C13.125 11.5729 13.3724 10.7161 13.8672 9.92969C14.362 9.14323 15.0521 8.75 15.9375 8.75C16.75 8.75 17.4219 9.10677 17.9531 9.82031C18.4844 10.5339 18.75 11.4271 18.75 12.5C18.75 13.4479 18.6172 14.2318 18.3516 14.8516C18.0859 15.4714 17.8958 15.8698 17.7812 16.0469L17.5 16.4844C17.5104 17.224 17.3099 17.8906 16.8984 18.4844C16.487 19.0781 15.8802 19.375 15.0781 19.375Z" fill="#CFC4B2"/>
</g>
</svg>
