<svg width="24" height="24" viewBox="0 0 24 24" fill="none" xmlns="http://www.w3.org/2000/svg">
<circle cx="12" cy="12" r="12" fill="#171616" fill-opacity="0.29"/>
<mask id="mask0_564_3" style="mask-type:alpha" maskUnits="userSpaceOnUse" x="5" y="5" width="14" height="14">
<rect x="5" y="5" width="14" height="14" fill="#D9D9D9"/>
</mask>
<g mask="url(#mask0_564_3)">
<path d="M10.5391 8.20833C10.2182 8.20833 9.94358 8.0941 9.7151 7.86563C9.48663 7.63715 9.3724 7.3625 9.3724 7.04167C9.3724 6.72083 9.48663 6.44618 9.7151 6.21771C9.94358 5.98924 10.2182 5.875 10.5391 5.875C10.8599 5.875 11.1345 5.98924 11.363 6.21771C11.5915 6.44618 11.7057 6.72083 11.7057 7.04167C11.7057 7.3625 11.5915 7.63715 11.363 7.86563C11.1345 8.0941 10.8599 8.20833 10.5391 8.20833ZM6.7474 18.4167L8.35156 10.1917L7.33073 10.6292V12.5833H6.16406V9.84167L9.22656 8.5875C9.48906 8.48056 9.75642 8.4684 10.0286 8.55104C10.3009 8.63368 10.5099 8.80139 10.6557 9.05417L11.2099 9.9875C11.4724 10.4153 11.8248 10.7604 12.2672 11.0229C12.7095 11.2854 13.203 11.4167 13.7474 11.4167V12.5833C13.1057 12.5833 12.5102 12.4472 11.9609 12.175C11.4116 11.9028 10.9474 11.5333 10.5682 11.0667L10.2182 12.8167L11.4141 14.0125V18.4167H10.2474V14.9167L8.99323 13.75L7.9724 18.4167H6.7474ZM14.7682 18.4167V10.25H12.5807V6.16667H17.8307V10.25H15.6432V18.4167H14.7682ZM15.512 9.65208L16.9557 8.20833L15.512 6.76458L14.8849 7.39167L15.2641 7.77083H13.4557V8.64583H15.2641L14.8849 9.025L15.512 9.65208Z" fill="#CFC4B2"/>
</g>
</svg>
