<svg width="19" height="19" viewBox="0 0 19 19" fill="none" xmlns="http://www.w3.org/2000/svg">
<mask id="mask0_767_2720" style="mask-type:alpha" maskUnits="userSpaceOnUse" x="0" y="0" width="19" height="19">
<rect width="18.231" height="18.231" fill="#D9D9D9"/>
</mask>
<g mask="url(#mask0_767_2720)">
<path d="M1.51953 16.7141V15.1949C2.10191 15.1949 2.67796 15.1569 3.24767 15.0809C3.81739 15.005 4.37445 14.8657 4.91885 14.6631C4.33647 14.372 3.87753 13.951 3.54203 13.4003C3.20653 12.8495 3.03878 12.2513 3.03878 11.6057V9.87752H6.07727V7.59865H8.641L6.15324 2.62311L7.52056 1.93945L10.0083 6.91499C10.2615 7.4214 10.2425 7.91516 9.95135 8.39625C9.66016 8.87735 9.22971 9.1179 8.65999 9.1179H7.59652V9.87752C7.59652 10.2953 7.44776 10.653 7.15024 10.9505C6.85272 11.248 6.49507 11.3968 6.07727 11.3968H4.55803V11.6057C4.55803 12.0488 4.69412 12.4381 4.96632 12.7736C5.23852 13.1091 5.58352 13.3338 6.00131 13.4478L6.2292 13.5047C6.73561 13.6313 7.02047 13.9478 7.08377 14.4543C7.14708 14.9607 6.95084 15.3405 6.49507 15.5937C5.73544 16.0115 4.93467 16.3027 4.09276 16.4673C3.25084 16.6318 2.3931 16.7141 1.51953 16.7141ZM12.3821 14.5492L11.2997 13.4857C11.5656 13.2199 11.7744 12.9128 11.9264 12.5647C12.0783 12.2165 12.1543 11.8399 12.1543 11.4347C12.1543 11.0296 12.0783 10.653 11.9264 10.3048C11.7744 9.95665 11.5656 9.64963 11.2997 9.38376L12.3821 8.3013C12.7873 8.70643 13.1038 9.17803 13.3317 9.7161C13.5596 10.2542 13.6735 10.827 13.6735 11.4347C13.6735 12.0424 13.5596 12.6122 13.3317 13.1439C13.1038 13.6756 12.7873 14.1441 12.3821 14.5492ZM14.5281 16.7141L13.4456 15.6317C13.99 15.0873 14.4173 14.4574 14.7275 13.7421C15.0377 13.0268 15.1928 12.2577 15.1928 11.4347C15.1928 10.5992 15.0377 9.82688 14.7275 9.1179C14.4173 8.40891 13.99 7.78222 13.4456 7.23783L14.5281 6.15536C15.2117 6.83903 15.7466 7.6303 16.1328 8.52919C16.5189 9.42808 16.712 10.3966 16.712 11.4347C16.712 12.4602 16.5189 13.4256 16.1328 14.3308C15.7466 15.236 15.2117 16.0305 14.5281 16.7141Z" fill="#F5F5F5"/>
</g>
</svg>
